<mxfile host="app.diagrams.net" modified="2023-07-16T13:44:39.983Z" agent="Mozilla/5.0 (Windows NT 10.0; Win64; x64) AppleWebKit/537.36 (KHTML, like Gecko) Chrome/114.0.0.0 Safari/537.36" etag="lrtfBQe2a8yqDTXZC-yP" version="21.6.2" type="github">
  <diagram name="Trang-1" id="J3f4iVhXzYm8by6NgYqV">
    <mxGraphModel dx="1340" dy="684" grid="1" gridSize="10" guides="1" tooltips="1" connect="1" arrows="1" fold="1" page="1" pageScale="1" pageWidth="827" pageHeight="1169" math="0" shadow="0">
      <root>
        <mxCell id="0" />
        <mxCell id="1" parent="0" />
        <mxCell id="AzpTpsu2Y7NkiSPlxnix-1" value="" style="endArrow=classic;html=1;rounded=0;" edge="1" parent="1">
          <mxGeometry width="50" height="50" relative="1" as="geometry">
            <mxPoint x="40" y="240" as="sourcePoint" />
            <mxPoint x="90" y="240" as="targetPoint" />
          </mxGeometry>
        </mxCell>
        <mxCell id="AzpTpsu2Y7NkiSPlxnix-2" value="" style="rounded=1;whiteSpace=wrap;html=1;" vertex="1" parent="1">
          <mxGeometry x="100" y="210" width="110" height="50" as="geometry" />
        </mxCell>
        <mxCell id="AzpTpsu2Y7NkiSPlxnix-3" value="" style="endArrow=classic;html=1;rounded=0;" edge="1" parent="1">
          <mxGeometry width="50" height="50" relative="1" as="geometry">
            <mxPoint x="154.41" y="200" as="sourcePoint" />
            <mxPoint x="154.41" y="140" as="targetPoint" />
            <Array as="points" />
          </mxGeometry>
        </mxCell>
        <mxCell id="AzpTpsu2Y7NkiSPlxnix-4" value="" style="endArrow=classic;html=1;rounded=0;" edge="1" parent="1">
          <mxGeometry width="50" height="50" relative="1" as="geometry">
            <mxPoint x="154.5" y="280" as="sourcePoint" />
            <mxPoint x="154.5" y="350" as="targetPoint" />
            <Array as="points" />
          </mxGeometry>
        </mxCell>
        <mxCell id="AzpTpsu2Y7NkiSPlxnix-5" value="" style="ellipse;whiteSpace=wrap;html=1;aspect=fixed;" vertex="1" parent="1">
          <mxGeometry x="125" y="50" width="60" height="60" as="geometry" />
        </mxCell>
        <mxCell id="AzpTpsu2Y7NkiSPlxnix-6" value="" style="ellipse;whiteSpace=wrap;html=1;aspect=fixed;" vertex="1" parent="1">
          <mxGeometry x="125" y="380" width="60" height="60" as="geometry" />
        </mxCell>
        <mxCell id="AzpTpsu2Y7NkiSPlxnix-7" value="" style="endArrow=classic;html=1;rounded=0;" edge="1" parent="1">
          <mxGeometry width="50" height="50" relative="1" as="geometry">
            <mxPoint x="230" y="240" as="sourcePoint" />
            <mxPoint x="280" y="240" as="targetPoint" />
          </mxGeometry>
        </mxCell>
        <mxCell id="AzpTpsu2Y7NkiSPlxnix-8" value="" style="rounded=1;whiteSpace=wrap;html=1;" vertex="1" parent="1">
          <mxGeometry x="290" y="150" width="340" height="190" as="geometry" />
        </mxCell>
        <mxCell id="AzpTpsu2Y7NkiSPlxnix-10" value="" style="ellipse;whiteSpace=wrap;html=1;aspect=fixed;" vertex="1" parent="1">
          <mxGeometry x="335" y="170" width="30" height="30" as="geometry" />
        </mxCell>
        <mxCell id="AzpTpsu2Y7NkiSPlxnix-11" value="" style="ellipse;whiteSpace=wrap;html=1;aspect=fixed;" vertex="1" parent="1">
          <mxGeometry x="440" y="170" width="30" height="30" as="geometry" />
        </mxCell>
        <mxCell id="AzpTpsu2Y7NkiSPlxnix-12" value="" style="ellipse;whiteSpace=wrap;html=1;aspect=fixed;" vertex="1" parent="1">
          <mxGeometry x="440" y="210" width="30" height="30" as="geometry" />
        </mxCell>
        <mxCell id="AzpTpsu2Y7NkiSPlxnix-13" value="" style="ellipse;whiteSpace=wrap;html=1;aspect=fixed;" vertex="1" parent="1">
          <mxGeometry x="560" y="230" width="30" height="30" as="geometry" />
        </mxCell>
        <mxCell id="AzpTpsu2Y7NkiSPlxnix-15" value="" style="rounded=1;whiteSpace=wrap;html=1;" vertex="1" parent="1">
          <mxGeometry x="332.5" y="255" width="35" height="25" as="geometry" />
        </mxCell>
        <mxCell id="AzpTpsu2Y7NkiSPlxnix-16" value="" style="rounded=1;whiteSpace=wrap;html=1;" vertex="1" parent="1">
          <mxGeometry x="379" y="255" width="35" height="25" as="geometry" />
        </mxCell>
        <mxCell id="AzpTpsu2Y7NkiSPlxnix-17" value="" style="rounded=1;whiteSpace=wrap;html=1;" vertex="1" parent="1">
          <mxGeometry x="430" y="260" width="50" height="20" as="geometry" />
        </mxCell>
        <mxCell id="AzpTpsu2Y7NkiSPlxnix-22" value="" style="rounded=1;whiteSpace=wrap;html=1;" vertex="1" parent="1">
          <mxGeometry x="500" y="200" width="50" height="20" as="geometry" />
        </mxCell>
        <mxCell id="AzpTpsu2Y7NkiSPlxnix-23" value="" style="rounded=1;whiteSpace=wrap;html=1;arcSize=0;" vertex="1" parent="1">
          <mxGeometry x="507.5" y="255" width="35" height="25" as="geometry" />
        </mxCell>
        <mxCell id="AzpTpsu2Y7NkiSPlxnix-25" value="" style="endArrow=classic;html=1;rounded=0;" edge="1" parent="1">
          <mxGeometry width="50" height="50" relative="1" as="geometry">
            <mxPoint x="640" y="244.41" as="sourcePoint" />
            <mxPoint x="690" y="244.41" as="targetPoint" />
          </mxGeometry>
        </mxCell>
        <mxCell id="AzpTpsu2Y7NkiSPlxnix-26" value="" style="rounded=1;whiteSpace=wrap;html=1;" vertex="1" parent="1">
          <mxGeometry x="710" y="210" width="110" height="50" as="geometry" />
        </mxCell>
        <mxCell id="AzpTpsu2Y7NkiSPlxnix-28" value="" style="endArrow=classic;html=1;rounded=0;" edge="1" parent="1">
          <mxGeometry width="50" height="50" relative="1" as="geometry">
            <mxPoint x="764.41" y="200" as="sourcePoint" />
            <mxPoint x="764.41" y="140" as="targetPoint" />
            <Array as="points" />
          </mxGeometry>
        </mxCell>
        <mxCell id="AzpTpsu2Y7NkiSPlxnix-29" value="" style="endArrow=classic;html=1;rounded=0;" edge="1" parent="1">
          <mxGeometry width="50" height="50" relative="1" as="geometry">
            <mxPoint x="764.41" y="280" as="sourcePoint" />
            <mxPoint x="764.41" y="350" as="targetPoint" />
            <Array as="points" />
          </mxGeometry>
        </mxCell>
        <mxCell id="AzpTpsu2Y7NkiSPlxnix-30" value="" style="ellipse;whiteSpace=wrap;html=1;aspect=fixed;" vertex="1" parent="1">
          <mxGeometry x="735" y="50" width="60" height="60" as="geometry" />
        </mxCell>
        <mxCell id="AzpTpsu2Y7NkiSPlxnix-31" value="" style="ellipse;whiteSpace=wrap;html=1;aspect=fixed;" vertex="1" parent="1">
          <mxGeometry x="735" y="380" width="60" height="60" as="geometry" />
        </mxCell>
      </root>
    </mxGraphModel>
  </diagram>
</mxfile>
